<mxfile host="app.diagrams.net" modified="2023-06-15T10:26:59.066Z" agent="Mozilla/5.0 (Windows NT 10.0; Win64; x64) AppleWebKit/537.36 (KHTML, like Gecko) Chrome/113.0.0.0 Safari/537.36" etag="5D7xLREvcikAzUuE32QO" version="21.4.0" type="github" pages="2">
  <diagram id="E5x44cDoQaeF7NATeFnC" name="页面加载流程图">
    <mxGraphModel dx="2219" dy="549" grid="1" gridSize="10" guides="1" tooltips="1" connect="1" arrows="1" fold="1" page="1" pageScale="1" pageWidth="1169" pageHeight="1654" math="0" shadow="0">
      <root>
        <mxCell id="0" />
        <mxCell id="1" parent="0" />
        <mxCell id="bGXHBq7ZRL8jHebe2MsM-99" value="" style="rounded=0;whiteSpace=wrap;html=1;fontSize=12;strokeColor=none;strokeWidth=1;fillColor=#FFC8BF;opacity=90;" parent="1" vertex="1">
          <mxGeometry x="-540" y="131" width="290" height="709" as="geometry" />
        </mxCell>
        <mxCell id="bGXHBq7ZRL8jHebe2MsM-98" value="" style="rounded=0;whiteSpace=wrap;html=1;fontSize=12;strokeColor=none;strokeWidth=1;fillColor=#FFDDAB;" parent="1" vertex="1">
          <mxGeometry x="-790" y="129.5" width="224" height="710.5" as="geometry" />
        </mxCell>
        <mxCell id="bGXHBq7ZRL8jHebe2MsM-96" value="" style="rounded=0;whiteSpace=wrap;html=1;fontSize=12;strokeColor=none;strokeWidth=1;fillColor=#E6E7FF;" parent="1" vertex="1">
          <mxGeometry x="1370" y="140" width="530" height="870" as="geometry" />
        </mxCell>
        <mxCell id="bGXHBq7ZRL8jHebe2MsM-93" value="" style="rounded=0;whiteSpace=wrap;html=1;fontSize=12;strokeColor=none;strokeWidth=1;fillColor=#E0F1FF;" parent="1" vertex="1">
          <mxGeometry x="-20" y="120" width="540" height="930" as="geometry" />
        </mxCell>
        <mxCell id="bGXHBq7ZRL8jHebe2MsM-5" value="订阅 WS 通道" style="rounded=1;" parent="1" vertex="1">
          <mxGeometry x="-171" y="145" width="90" height="40" as="geometry" />
        </mxCell>
        <mxCell id="bGXHBq7ZRL8jHebe2MsM-6" value="" style="curved=1;noEdgeStyle=1;orthogonal=1;exitX=1;exitY=0.5;exitDx=0;exitDy=0;" parent="1" edge="1">
          <mxGeometry relative="1" as="geometry">
            <Array as="points">
              <mxPoint x="-250" y="164" />
              <mxPoint x="-170" y="164" />
              <mxPoint x="-186" y="164" />
            </Array>
            <mxPoint x="-356" y="163.5" as="sourcePoint" />
            <mxPoint x="-170" y="164" as="targetPoint" />
          </mxGeometry>
        </mxCell>
        <mxCell id="bGXHBq7ZRL8jHebe2MsM-7" value="触发 refresh action" style="rounded=1;" parent="1" vertex="1">
          <mxGeometry x="130" y="144" width="220" height="46" as="geometry" />
        </mxCell>
        <mxCell id="bGXHBq7ZRL8jHebe2MsM-8" value="" style="curved=1;noEdgeStyle=1;orthogonal=1;" parent="1" source="bGXHBq7ZRL8jHebe2MsM-5" target="bGXHBq7ZRL8jHebe2MsM-7" edge="1">
          <mxGeometry relative="1" as="geometry">
            <Array as="points">
              <mxPoint x="50" y="164" />
            </Array>
          </mxGeometry>
        </mxCell>
        <mxCell id="bGXHBq7ZRL8jHebe2MsM-9" value="主动询价maker查询" style="rounded=1;" parent="1" vertex="1">
          <mxGeometry x="551" y="144" width="120" height="40" as="geometry" />
        </mxCell>
        <mxCell id="bGXHBq7ZRL8jHebe2MsM-10" value="" style="curved=1;noEdgeStyle=1;orthogonal=1;" parent="1" edge="1">
          <mxGeometry relative="1" as="geometry">
            <Array as="points" />
            <mxPoint x="350" y="162" as="sourcePoint" />
            <mxPoint x="551" y="162" as="targetPoint" />
          </mxGeometry>
        </mxCell>
        <mxCell id="bGXHBq7ZRL8jHebe2MsM-11" value="处理页签埋点" style="rounded=1;" parent="1" vertex="1">
          <mxGeometry x="751" y="144" width="90" height="40" as="geometry" />
        </mxCell>
        <mxCell id="bGXHBq7ZRL8jHebe2MsM-12" value="" style="curved=1;noEdgeStyle=1;orthogonal=1;" parent="1" source="bGXHBq7ZRL8jHebe2MsM-9" target="bGXHBq7ZRL8jHebe2MsM-11" edge="1">
          <mxGeometry relative="1" as="geometry">
            <Array as="points">
              <mxPoint x="731" y="164" />
            </Array>
          </mxGeometry>
        </mxCell>
        <mxCell id="bGXHBq7ZRL8jHebe2MsM-13" value="添加 storage事件监听" style="rounded=1;" parent="1" vertex="1">
          <mxGeometry x="931" y="144" width="120" height="40" as="geometry" />
        </mxCell>
        <mxCell id="bGXHBq7ZRL8jHebe2MsM-14" value="" style="curved=1;noEdgeStyle=1;orthogonal=1;" parent="1" source="bGXHBq7ZRL8jHebe2MsM-11" target="bGXHBq7ZRL8jHebe2MsM-13" edge="1">
          <mxGeometry relative="1" as="geometry">
            <Array as="points">
              <mxPoint x="911" y="164" />
            </Array>
          </mxGeometry>
        </mxCell>
        <mxCell id="bGXHBq7ZRL8jHebe2MsM-15" value="聊天置顶逻辑处理" style="rounded=1;" parent="1" vertex="1">
          <mxGeometry x="1151" y="144" width="110" height="40" as="geometry" />
        </mxCell>
        <mxCell id="bGXHBq7ZRL8jHebe2MsM-16" value="" style="curved=1;noEdgeStyle=1;orthogonal=1;" parent="1" source="bGXHBq7ZRL8jHebe2MsM-13" target="bGXHBq7ZRL8jHebe2MsM-15" edge="1">
          <mxGeometry relative="1" as="geometry">
            <Array as="points">
              <mxPoint x="1051" y="164" />
              <mxPoint x="1131" y="164" />
            </Array>
          </mxGeometry>
        </mxCell>
        <mxCell id="bGXHBq7ZRL8jHebe2MsM-17" value="页签展示逻辑" style="rounded=1;" parent="1" vertex="1">
          <mxGeometry x="1583" y="145" width="80" height="40" as="geometry" />
        </mxCell>
        <mxCell id="bGXHBq7ZRL8jHebe2MsM-18" value="" style="curved=1;noEdgeStyle=1;orthogonal=1;" parent="1" source="bGXHBq7ZRL8jHebe2MsM-15" target="bGXHBq7ZRL8jHebe2MsM-17" edge="1">
          <mxGeometry relative="1" as="geometry">
            <Array as="points">
              <mxPoint x="1331" y="164" />
            </Array>
          </mxGeometry>
        </mxCell>
        <mxCell id="bGXHBq7ZRL8jHebe2MsM-20" value="url判断" style="rounded=1;whiteSpace=wrap;html=1;" parent="1" vertex="1">
          <mxGeometry x="-440" y="143.5" width="90" height="40" as="geometry" />
        </mxCell>
        <mxCell id="bGXHBq7ZRL8jHebe2MsM-22" value="行情数据变更" style="rounded=0;whiteSpace=wrap;html=1;" parent="1" vertex="1">
          <mxGeometry x="-177" y="226" width="120" height="155" as="geometry" />
        </mxCell>
        <mxCell id="bGXHBq7ZRL8jHebe2MsM-23" value="" style="rounded=0;whiteSpace=wrap;html=1;strokeColor=none;" parent="1" vertex="1">
          <mxGeometry x="1" y="220" width="500" height="770" as="geometry" />
        </mxCell>
        <mxCell id="bGXHBq7ZRL8jHebe2MsM-28" value="" style="edgeStyle=orthogonalEdgeStyle;rounded=0;orthogonalLoop=1;jettySize=auto;html=1;" parent="1" source="bGXHBq7ZRL8jHebe2MsM-24" target="bGXHBq7ZRL8jHebe2MsM-25" edge="1">
          <mxGeometry relative="1" as="geometry" />
        </mxCell>
        <mxCell id="bGXHBq7ZRL8jHebe2MsM-24" value="message 弹窗销毁" style="rounded=0;whiteSpace=wrap;html=1;" parent="1" vertex="1">
          <mxGeometry x="170.25" y="240" width="147.5" height="35" as="geometry" />
        </mxCell>
        <mxCell id="bGXHBq7ZRL8jHebe2MsM-33" value="" style="edgeStyle=orthogonalEdgeStyle;rounded=0;orthogonalLoop=1;jettySize=auto;html=1;" parent="1" source="bGXHBq7ZRL8jHebe2MsM-25" target="bGXHBq7ZRL8jHebe2MsM-32" edge="1">
          <mxGeometry relative="1" as="geometry" />
        </mxCell>
        <mxCell id="bGXHBq7ZRL8jHebe2MsM-25" value="二级用户权限获取：get_user_secondDebtPriv.do" style="rounded=0;whiteSpace=wrap;html=1;" parent="1" vertex="1">
          <mxGeometry x="139" y="316" width="210" height="60" as="geometry" />
        </mxCell>
        <mxCell id="bGXHBq7ZRL8jHebe2MsM-70" value="" style="edgeStyle=none;rounded=0;orthogonalLoop=1;jettySize=auto;html=1;" parent="1" source="bGXHBq7ZRL8jHebe2MsM-26" target="bGXHBq7ZRL8jHebe2MsM-45" edge="1">
          <mxGeometry relative="1" as="geometry" />
        </mxCell>
        <mxCell id="bGXHBq7ZRL8jHebe2MsM-26" value="现券菜单权限：get_user_function_auth.do" style="rounded=0;whiteSpace=wrap;html=1;" parent="1" vertex="1">
          <mxGeometry x="139" y="512" width="210" height="48" as="geometry" />
        </mxCell>
        <mxCell id="bGXHBq7ZRL8jHebe2MsM-34" value="" style="edgeStyle=orthogonalEdgeStyle;rounded=0;orthogonalLoop=1;jettySize=auto;html=1;" parent="1" source="bGXHBq7ZRL8jHebe2MsM-32" target="bGXHBq7ZRL8jHebe2MsM-26" edge="1">
          <mxGeometry relative="1" as="geometry" />
        </mxCell>
        <mxCell id="bGXHBq7ZRL8jHebe2MsM-32" value="权限变更确认：confirm_changed_priv.do" style="rounded=0;whiteSpace=wrap;html=1;" parent="1" vertex="1">
          <mxGeometry x="139" y="420" width="210" height="50" as="geometry" />
        </mxCell>
        <mxCell id="bGXHBq7ZRL8jHebe2MsM-35" value="" style="rounded=0;whiteSpace=wrap;html=1;" parent="1" vertex="1">
          <mxGeometry x="16" y="740" width="115" height="240" as="geometry" />
        </mxCell>
        <mxCell id="bGXHBq7ZRL8jHebe2MsM-36" value="" style="rounded=0;whiteSpace=wrap;html=1;" parent="1" vertex="1">
          <mxGeometry x="149" y="740" width="112" height="240" as="geometry" />
        </mxCell>
        <mxCell id="bGXHBq7ZRL8jHebe2MsM-66" style="edgeStyle=none;rounded=0;orthogonalLoop=1;jettySize=auto;html=1;entryX=0.5;entryY=0;entryDx=0;entryDy=0;exitX=0.5;exitY=1;exitDx=0;exitDy=0;" parent="1" source="bGXHBq7ZRL8jHebe2MsM-45" target="bGXHBq7ZRL8jHebe2MsM-35" edge="1">
          <mxGeometry relative="1" as="geometry" />
        </mxCell>
        <mxCell id="bGXHBq7ZRL8jHebe2MsM-67" style="edgeStyle=none;rounded=0;orthogonalLoop=1;jettySize=auto;html=1;entryX=0.5;entryY=0;entryDx=0;entryDy=0;" parent="1" target="bGXHBq7ZRL8jHebe2MsM-36" edge="1">
          <mxGeometry relative="1" as="geometry">
            <mxPoint x="241" y="630" as="sourcePoint" />
          </mxGeometry>
        </mxCell>
        <mxCell id="bGXHBq7ZRL8jHebe2MsM-68" value="" style="edgeStyle=none;rounded=0;orthogonalLoop=1;jettySize=auto;html=1;entryX=0.5;entryY=0;entryDx=0;entryDy=0;exitX=0.5;exitY=1;exitDx=0;exitDy=0;" parent="1" source="bGXHBq7ZRL8jHebe2MsM-45" target="bGXHBq7ZRL8jHebe2MsM-56" edge="1">
          <mxGeometry relative="1" as="geometry" />
        </mxCell>
        <mxCell id="bGXHBq7ZRL8jHebe2MsM-69" value="" style="edgeStyle=none;rounded=0;orthogonalLoop=1;jettySize=auto;html=1;entryX=0.5;entryY=0;entryDx=0;entryDy=0;" parent="1" target="bGXHBq7ZRL8jHebe2MsM-55" edge="1">
          <mxGeometry relative="1" as="geometry">
            <mxPoint x="241" y="630" as="sourcePoint" />
          </mxGeometry>
        </mxCell>
        <mxCell id="bGXHBq7ZRL8jHebe2MsM-45" value="页签列表请求" style="rounded=0;whiteSpace=wrap;html=1;" parent="1" vertex="1">
          <mxGeometry x="139" y="590" width="210" height="40" as="geometry" />
        </mxCell>
        <mxCell id="bGXHBq7ZRL8jHebe2MsM-46" value="询价群收" style="rounded=0;whiteSpace=wrap;html=1;" parent="1" vertex="1">
          <mxGeometry x="26" y="810" width="80" height="30" as="geometry" />
        </mxCell>
        <mxCell id="bGXHBq7ZRL8jHebe2MsM-47" value="我的发布" style="rounded=0;whiteSpace=wrap;html=1;" parent="1" vertex="1">
          <mxGeometry x="26" y="855" width="80" height="30" as="geometry" />
        </mxCell>
        <mxCell id="bGXHBq7ZRL8jHebe2MsM-48" value="待录入单据" style="rounded=0;whiteSpace=wrap;html=1;" parent="1" vertex="1">
          <mxGeometry x="26" y="900" width="80" height="30" as="geometry" />
        </mxCell>
        <mxCell id="bGXHBq7ZRL8jHebe2MsM-49" value="待确认单据" style="rounded=0;whiteSpace=wrap;html=1;" parent="1" vertex="1">
          <mxGeometry x="26" y="940" width="80" height="30" as="geometry" />
        </mxCell>
        <mxCell id="bGXHBq7ZRL8jHebe2MsM-51" value="我的行情" style="rounded=0;whiteSpace=wrap;html=1;" parent="1" vertex="1">
          <mxGeometry x="159" y="808" width="80" height="30" as="geometry" />
        </mxCell>
        <mxCell id="bGXHBq7ZRL8jHebe2MsM-52" value="机构行情" style="rounded=0;whiteSpace=wrap;html=1;" parent="1" vertex="1">
          <mxGeometry x="159" y="851" width="80" height="30" as="geometry" />
        </mxCell>
        <mxCell id="bGXHBq7ZRL8jHebe2MsM-53" value="个人单券汇总" style="rounded=0;whiteSpace=wrap;html=1;" parent="1" vertex="1">
          <mxGeometry x="159" y="896" width="80" height="30" as="geometry" />
        </mxCell>
        <mxCell id="bGXHBq7ZRL8jHebe2MsM-54" value="机构单券汇总" style="rounded=0;whiteSpace=wrap;html=1;" parent="1" vertex="1">
          <mxGeometry x="159" y="941" width="80" height="30" as="geometry" />
        </mxCell>
        <mxCell id="bGXHBq7ZRL8jHebe2MsM-55" value="&lt;span style=&quot;color: rgba(0, 0, 0, 0); font-family: monospace; font-size: 0px; text-align: start;&quot;&gt;%3CmxGraphModel%3E%3Croot%3E%3CmxCell%20id%3D%220%22%2F%3E%3CmxCell%20id%3D%221%22%20parent%3D%220%22%2F%3E%3CmxCell%20id%3D%222%22%20value%3D%22%E6%9C%89%E6%9D%83%E9%99%90%E4%BE%BF%E8%AF%B7%E6%B1%82%22%20style%3D%22text%3Bhtml%3D1%3BstrokeColor%3Dnone%3BfillColor%3Dnone%3Balign%3Dcenter%3BverticalAlign%3Dmiddle%3BwhiteSpace%3Dwrap%3Brounded%3D0%3B%22%20vertex%3D%221%22%20parent%3D%221%22%3E%3CmxGeometry%20x%3D%2275%22%20y%3D%22750%22%20width%3D%2285%22%20height%3D%2230%22%20as%3D%22geometry%22%2F%3E%3C%2FmxCell%3E%3C%2Froot%3E%3C%2FmxGraphModel%3E&lt;/span&gt;" style="rounded=0;whiteSpace=wrap;html=1;" parent="1" vertex="1">
          <mxGeometry x="271" y="740" width="100" height="240" as="geometry" />
        </mxCell>
        <mxCell id="bGXHBq7ZRL8jHebe2MsM-56" value="" style="rounded=0;whiteSpace=wrap;html=1;" parent="1" vertex="1">
          <mxGeometry x="391" y="740" width="100" height="240" as="geometry" />
        </mxCell>
        <mxCell id="bGXHBq7ZRL8jHebe2MsM-57" value="我的任务" style="rounded=0;whiteSpace=wrap;html=1;" parent="1" vertex="1">
          <mxGeometry x="281" y="808" width="80" height="30" as="geometry" />
        </mxCell>
        <mxCell id="bGXHBq7ZRL8jHebe2MsM-58" value="我的回价" style="rounded=0;whiteSpace=wrap;html=1;" parent="1" vertex="1">
          <mxGeometry x="406" y="810" width="80" height="30" as="geometry" />
        </mxCell>
        <mxCell id="bGXHBq7ZRL8jHebe2MsM-60" value="" style="edgeStyle=orthogonalEdgeStyle;rounded=0;orthogonalLoop=1;jettySize=auto;html=1;entryX=0;entryY=0.5;entryDx=0;entryDy=0;" parent="1" source="bGXHBq7ZRL8jHebe2MsM-59" target="bGXHBq7ZRL8jHebe2MsM-20" edge="1">
          <mxGeometry relative="1" as="geometry">
            <mxPoint x="-411" y="164" as="targetPoint" />
          </mxGeometry>
        </mxCell>
        <mxCell id="bGXHBq7ZRL8jHebe2MsM-59" value="chunk.js 加载" style="rounded=1;whiteSpace=wrap;html=1;" parent="1" vertex="1">
          <mxGeometry x="-718" y="143.5" width="90" height="40" as="geometry" />
        </mxCell>
        <mxCell id="bGXHBq7ZRL8jHebe2MsM-61" value="BondTrading.xxxxxxxx.css&lt;br&gt;&lt;br&gt;&lt;br&gt;BondTrading.xxxxxxxx.chunk.js&lt;br&gt;...." style="rounded=0;whiteSpace=wrap;html=1;strokeColor=none;" parent="1" vertex="1">
          <mxGeometry x="-763.5" y="214.5" width="172.5" height="180" as="geometry" />
        </mxCell>
        <mxCell id="bGXHBq7ZRL8jHebe2MsM-62" value="有权限便请求" style="text;html=1;strokeColor=none;fillColor=none;align=center;verticalAlign=middle;whiteSpace=wrap;rounded=0;" parent="1" vertex="1">
          <mxGeometry x="26" y="750" width="85" height="30" as="geometry" />
        </mxCell>
        <mxCell id="bGXHBq7ZRL8jHebe2MsM-63" value="在当前页签才请求" style="text;html=1;strokeColor=none;fillColor=none;align=center;verticalAlign=middle;whiteSpace=wrap;rounded=0;" parent="1" vertex="1">
          <mxGeometry x="153" y="750" width="107" height="30" as="geometry" />
        </mxCell>
        <mxCell id="bGXHBq7ZRL8jHebe2MsM-64" value="有权限便请求" style="text;html=1;strokeColor=none;fillColor=none;align=center;verticalAlign=middle;whiteSpace=wrap;rounded=0;" parent="1" vertex="1">
          <mxGeometry x="277.5" y="759.5" width="87" height="31" as="geometry" />
        </mxCell>
        <mxCell id="bGXHBq7ZRL8jHebe2MsM-65" value="页面懒加载，只在首次将进入页签进行请求" style="text;html=1;strokeColor=none;fillColor=none;align=left;verticalAlign=middle;whiteSpace=wrap;rounded=0;" parent="1" vertex="1">
          <mxGeometry x="401" y="750" width="80" height="50" as="geometry" />
        </mxCell>
        <mxCell id="bGXHBq7ZRL8jHebe2MsM-71" value="&lt;font style=&quot;font-size: 12px;&quot;&gt;有现券以及主动询价权限才请求主动询价机构配置结构&lt;/font&gt;" style="rounded=0;whiteSpace=wrap;html=1;strokeColor=#999999;" parent="1" vertex="1">
          <mxGeometry x="550" y="220" width="130" height="100" as="geometry" />
        </mxCell>
        <mxCell id="bGXHBq7ZRL8jHebe2MsM-72" value="&lt;font style=&quot;font-size: 12px;&quot;&gt;上部分页签、下部分选中的页签进行埋点添加、缓存&lt;/font&gt;" style="rounded=0;whiteSpace=wrap;html=1;strokeColor=#999999;" parent="1" vertex="1">
          <mxGeometry x="740" y="210" width="120" height="100" as="geometry" />
        </mxCell>
        <mxCell id="bGXHBq7ZRL8jHebe2MsM-73" value="&lt;div style=&quot;text-align: left;&quot;&gt;&lt;span style=&quot;background-color: initial;&quot;&gt;1、从缓存中读取 chatOpenId&lt;br&gt;&lt;br&gt;&lt;/span&gt;&lt;/div&gt;&lt;div style=&quot;text-align: left;&quot;&gt;&lt;span style=&quot;background-color: initial;&quot;&gt;2、监听右面板 chatOpenId的storage set 事件&lt;/span&gt;&lt;/div&gt;" style="rounded=0;whiteSpace=wrap;html=1;fontSize=12;strokeColor=#999999;" parent="1" vertex="1">
          <mxGeometry x="920" y="210" width="170" height="100" as="geometry" />
        </mxCell>
        <mxCell id="bGXHBq7ZRL8jHebe2MsM-74" value="用户配置信息请求：&lt;br&gt;get_up_dialog_config" style="rounded=0;whiteSpace=wrap;html=1;fontSize=12;strokeColor=#999999;" parent="1" vertex="1">
          <mxGeometry x="1130" y="210" width="170" height="80" as="geometry" />
        </mxCell>
        <mxCell id="bGXHBq7ZRL8jHebe2MsM-75" value="" style="rounded=0;whiteSpace=wrap;html=1;fontSize=12;strokeColor=none;" parent="1" vertex="1">
          <mxGeometry x="1616" y="220" width="264" height="660" as="geometry" />
        </mxCell>
        <mxCell id="bGXHBq7ZRL8jHebe2MsM-80" style="edgeStyle=none;rounded=0;orthogonalLoop=1;jettySize=auto;html=1;exitX=0.5;exitY=1;exitDx=0;exitDy=0;entryX=0.5;entryY=0;entryDx=0;entryDy=0;fontSize=12;" parent="1" source="bGXHBq7ZRL8jHebe2MsM-76" target="bGXHBq7ZRL8jHebe2MsM-77" edge="1">
          <mxGeometry relative="1" as="geometry">
            <Array as="points">
              <mxPoint x="1754" y="437" />
              <mxPoint x="1673" y="437" />
            </Array>
          </mxGeometry>
        </mxCell>
        <mxCell id="bGXHBq7ZRL8jHebe2MsM-81" style="edgeStyle=none;rounded=0;orthogonalLoop=1;jettySize=auto;html=1;exitX=0.5;exitY=1;exitDx=0;exitDy=0;entryX=0.5;entryY=0;entryDx=0;entryDy=0;fontSize=12;" parent="1" source="bGXHBq7ZRL8jHebe2MsM-76" target="bGXHBq7ZRL8jHebe2MsM-78" edge="1">
          <mxGeometry relative="1" as="geometry">
            <Array as="points">
              <mxPoint x="1754" y="437" />
              <mxPoint x="1823" y="437" />
            </Array>
          </mxGeometry>
        </mxCell>
        <mxCell id="bGXHBq7ZRL8jHebe2MsM-76" value="&lt;div&gt;&lt;div&gt;&amp;nbsp;Tabs.enquiries,&lt;/div&gt;&lt;div&gt;&amp;nbsp; Tabs.publish,&lt;/div&gt;&lt;div&gt;&amp;nbsp; Tabs.achieved,&lt;/div&gt;&lt;div&gt;&amp;nbsp; Tabs.followed,&lt;/div&gt;&lt;div&gt;&amp;nbsp; Tabs.myQuotes,&lt;/div&gt;&lt;div&gt;&amp;nbsp; Tabs.orgQuotes,&lt;/div&gt;&lt;div&gt;&amp;nbsp; Tabs.myPrice,&lt;/div&gt;&lt;div&gt;&lt;span style=&quot;background-color: initial;&quot;&gt;&amp;nbsp;&lt;/span&gt;&lt;br&gt;&lt;/div&gt;&lt;/div&gt;&lt;div&gt;上述页签是否都没权限&lt;/div&gt;" style="rounded=0;whiteSpace=wrap;html=1;fontSize=12;align=left;" parent="1" vertex="1">
          <mxGeometry x="1684" y="262" width="139" height="135" as="geometry" />
        </mxCell>
        <mxCell id="bGXHBq7ZRL8jHebe2MsM-77" value="无权限页面" style="rounded=0;whiteSpace=wrap;html=1;fontSize=12;" parent="1" vertex="1">
          <mxGeometry x="1623" y="487" width="100" height="55" as="geometry" />
        </mxCell>
        <mxCell id="bGXHBq7ZRL8jHebe2MsM-78" value="正常有权限页签" style="rounded=0;whiteSpace=wrap;html=1;fontSize=12;" parent="1" vertex="1">
          <mxGeometry x="1773" y="487" width="100" height="55" as="geometry" />
        </mxCell>
        <mxCell id="bGXHBq7ZRL8jHebe2MsM-82" value="否" style="text;html=1;strokeColor=none;fillColor=none;align=center;verticalAlign=middle;whiteSpace=wrap;rounded=0;fontSize=12;" parent="1" vertex="1">
          <mxGeometry x="1763" y="413" width="60" height="30" as="geometry" />
        </mxCell>
        <mxCell id="bGXHBq7ZRL8jHebe2MsM-84" value="是" style="text;html=1;strokeColor=none;fillColor=none;align=center;verticalAlign=middle;whiteSpace=wrap;rounded=0;fontSize=12;" parent="1" vertex="1">
          <mxGeometry x="1663" y="413" width="60" height="30" as="geometry" />
        </mxCell>
        <mxCell id="bGXHBq7ZRL8jHebe2MsM-91" value="" style="endArrow=none;html=1;rounded=0;fontSize=12;dashed=1;strokeColor=#FF9933;strokeWidth=3;" parent="1" edge="1">
          <mxGeometry width="50" height="50" relative="1" as="geometry">
            <mxPoint x="890" y="1020" as="sourcePoint" />
            <mxPoint x="890" y="184" as="targetPoint" />
          </mxGeometry>
        </mxCell>
        <mxCell id="bGXHBq7ZRL8jHebe2MsM-92" value="" style="endArrow=none;html=1;rounded=0;fontSize=12;dashed=1;strokeColor=#FF9933;strokeWidth=3;" parent="1" edge="1">
          <mxGeometry width="50" height="50" relative="1" as="geometry">
            <mxPoint x="710" y="1030" as="sourcePoint" />
            <mxPoint x="710" y="180" as="targetPoint" />
          </mxGeometry>
        </mxCell>
        <mxCell id="bGXHBq7ZRL8jHebe2MsM-94" value="" style="endArrow=none;html=1;rounded=0;fontSize=12;dashed=1;strokeColor=#FF9933;strokeWidth=3;" parent="1" edge="1">
          <mxGeometry width="50" height="50" relative="1" as="geometry">
            <mxPoint x="1110" y="1020" as="sourcePoint" />
            <mxPoint x="1110" y="184" as="targetPoint" />
          </mxGeometry>
        </mxCell>
        <mxCell id="bGXHBq7ZRL8jHebe2MsM-95" value="" style="endArrow=none;html=1;rounded=0;fontSize=12;dashed=1;strokeColor=#FF9933;strokeWidth=3;" parent="1" edge="1">
          <mxGeometry width="50" height="50" relative="1" as="geometry">
            <mxPoint x="1340" y="1020" as="sourcePoint" />
            <mxPoint x="1340" y="184" as="targetPoint" />
          </mxGeometry>
        </mxCell>
        <mxCell id="bGXHBq7ZRL8jHebe2MsM-102" value="" style="edgeStyle=none;rounded=0;orthogonalLoop=1;jettySize=auto;html=1;fontSize=12;strokeColor=#999999;strokeWidth=1;entryX=0.25;entryY=0;entryDx=0;entryDy=0;exitX=0.5;exitY=1;exitDx=0;exitDy=0;" parent="1" source="bGXHBq7ZRL8jHebe2MsM-100" target="bGXHBq7ZRL8jHebe2MsM-101" edge="1">
          <mxGeometry relative="1" as="geometry" />
        </mxCell>
        <mxCell id="bGXHBq7ZRL8jHebe2MsM-108" style="edgeStyle=none;rounded=0;orthogonalLoop=1;jettySize=auto;html=1;exitX=0.5;exitY=1;exitDx=0;exitDy=0;entryX=0.5;entryY=0;entryDx=0;entryDy=0;fontSize=12;strokeColor=#999999;strokeWidth=1;" parent="1" source="bGXHBq7ZRL8jHebe2MsM-100" target="bGXHBq7ZRL8jHebe2MsM-107" edge="1">
          <mxGeometry relative="1" as="geometry" />
        </mxCell>
        <mxCell id="bGXHBq7ZRL8jHebe2MsM-100" value="url中是否有&amp;nbsp; bonddCode 参数" style="rounded=0;whiteSpace=wrap;html=1;fontSize=12;strokeColor=#999999;strokeWidth=1;fillColor=#FFFFFF;" parent="1" vertex="1">
          <mxGeometry x="-470" y="220" width="120" height="55" as="geometry" />
        </mxCell>
        <mxCell id="bGXHBq7ZRL8jHebe2MsM-114" value="" style="edgeStyle=none;rounded=0;orthogonalLoop=1;jettySize=auto;html=1;fontSize=12;strokeColor=#999999;strokeWidth=1;" parent="1" source="bGXHBq7ZRL8jHebe2MsM-101" target="bGXHBq7ZRL8jHebe2MsM-113" edge="1">
          <mxGeometry relative="1" as="geometry" />
        </mxCell>
        <mxCell id="bGXHBq7ZRL8jHebe2MsM-101" value="1、bondCode 赋值给 keyWord&lt;br&gt;2、左侧页签定位到 基本信息&lt;br&gt;3、bondInnerCode赋值给bondInnerCodeBasic" style="whiteSpace=wrap;html=1;fillColor=#FFFFFF;strokeColor=#999999;rounded=0;strokeWidth=1;align=left;" parent="1" vertex="1">
          <mxGeometry x="-520" y="358" width="170" height="102" as="geometry" />
        </mxCell>
        <mxCell id="bGXHBq7ZRL8jHebe2MsM-128" value="" style="edgeStyle=none;rounded=0;orthogonalLoop=1;jettySize=auto;html=1;fontSize=12;strokeColor=#999999;strokeWidth=1;" parent="1" source="bGXHBq7ZRL8jHebe2MsM-107" edge="1">
          <mxGeometry relative="1" as="geometry">
            <mxPoint x="-210" y="401" as="targetPoint" />
          </mxGeometry>
        </mxCell>
        <mxCell id="bGXHBq7ZRL8jHebe2MsM-107" value="执行完毕" style="rounded=0;whiteSpace=wrap;html=1;fontSize=12;strokeColor=#999999;strokeWidth=1;fillColor=#FFFFFF;" parent="1" vertex="1">
          <mxGeometry x="-332" y="361" width="72" height="79" as="geometry" />
        </mxCell>
        <mxCell id="bGXHBq7ZRL8jHebe2MsM-109" value="是" style="text;html=1;strokeColor=none;fillColor=none;align=center;verticalAlign=middle;whiteSpace=wrap;rounded=0;fontSize=12;" parent="1" vertex="1">
          <mxGeometry x="-490" y="296" width="60" height="30" as="geometry" />
        </mxCell>
        <mxCell id="bGXHBq7ZRL8jHebe2MsM-110" value="否" style="text;html=1;strokeColor=none;fillColor=none;align=center;verticalAlign=middle;whiteSpace=wrap;rounded=0;fontSize=12;" parent="1" vertex="1">
          <mxGeometry x="-379" y="293" width="60" height="30" as="geometry" />
        </mxCell>
        <mxCell id="bGXHBq7ZRL8jHebe2MsM-119" style="edgeStyle=none;rounded=0;orthogonalLoop=1;jettySize=auto;html=1;entryX=0.5;entryY=0;entryDx=0;entryDy=0;fontSize=12;strokeColor=#999999;strokeWidth=1;" parent="1" source="bGXHBq7ZRL8jHebe2MsM-113" target="bGXHBq7ZRL8jHebe2MsM-118" edge="1">
          <mxGeometry relative="1" as="geometry" />
        </mxCell>
        <mxCell id="bGXHBq7ZRL8jHebe2MsM-113" value="跳转来源是单券汇总" style="rhombus;whiteSpace=wrap;html=1;align=center;fillColor=#FFFFFF;strokeColor=#999999;rounded=0;strokeWidth=1;" parent="1" vertex="1">
          <mxGeometry x="-505" y="510" width="135" height="100" as="geometry" />
        </mxCell>
        <mxCell id="bGXHBq7ZRL8jHebe2MsM-117" value="否" style="text;html=1;strokeColor=none;fillColor=none;align=center;verticalAlign=middle;whiteSpace=wrap;rounded=0;fontSize=12;" parent="1" vertex="1">
          <mxGeometry x="-365" y="530" width="60" height="30" as="geometry" />
        </mxCell>
        <mxCell id="bGXHBq7ZRL8jHebe2MsM-118" value="下部分页签定位到待录入单据" style="rounded=0;whiteSpace=wrap;html=1;fontSize=12;strokeColor=#999999;strokeWidth=1;fillColor=#FFFFFF;" parent="1" vertex="1">
          <mxGeometry x="-497" y="660" width="120" height="50" as="geometry" />
        </mxCell>
        <mxCell id="bGXHBq7ZRL8jHebe2MsM-125" value="" style="group" parent="1" vertex="1" connectable="0">
          <mxGeometry x="-307" y="560" height="125" as="geometry" />
        </mxCell>
        <mxCell id="bGXHBq7ZRL8jHebe2MsM-144" value="" style="group" parent="bGXHBq7ZRL8jHebe2MsM-125" vertex="1" connectable="0">
          <mxGeometry height="125" as="geometry" />
        </mxCell>
        <mxCell id="bGXHBq7ZRL8jHebe2MsM-116" style="edgeStyle=none;rounded=0;orthogonalLoop=1;jettySize=auto;html=1;exitX=1;exitY=0.5;exitDx=0;exitDy=0;fontSize=12;strokeColor=#999999;strokeWidth=1;" parent="bGXHBq7ZRL8jHebe2MsM-144" source="bGXHBq7ZRL8jHebe2MsM-113" edge="1">
          <mxGeometry relative="1" as="geometry">
            <mxPoint y="-120" as="targetPoint" />
            <Array as="points">
              <mxPoint />
            </Array>
          </mxGeometry>
        </mxCell>
        <mxCell id="bGXHBq7ZRL8jHebe2MsM-124" value="" style="endArrow=none;html=1;rounded=0;fontSize=12;strokeColor=#999999;strokeWidth=1;exitX=1;exitY=0.5;exitDx=0;exitDy=0;" parent="bGXHBq7ZRL8jHebe2MsM-144" source="bGXHBq7ZRL8jHebe2MsM-118" edge="1">
          <mxGeometry width="50" height="50" relative="1" as="geometry">
            <mxPoint x="-63" y="130" as="sourcePoint" />
            <mxPoint as="targetPoint" />
            <Array as="points">
              <mxPoint y="125" />
            </Array>
          </mxGeometry>
        </mxCell>
        <mxCell id="bGXHBq7ZRL8jHebe2MsM-126" value="是" style="text;html=1;strokeColor=none;fillColor=none;align=center;verticalAlign=middle;whiteSpace=wrap;rounded=0;fontSize=12;" parent="1" vertex="1">
          <mxGeometry x="-480" y="620" width="60" height="30" as="geometry" />
        </mxCell>
        <mxCell id="bGXHBq7ZRL8jHebe2MsM-127" value="否" style="text;html=1;strokeColor=none;fillColor=none;align=center;verticalAlign=middle;whiteSpace=wrap;rounded=0;fontSize=12;" parent="1" vertex="1">
          <mxGeometry x="-372" y="658" width="60" height="30" as="geometry" />
        </mxCell>
        <mxCell id="bGXHBq7ZRL8jHebe2MsM-129" value="" style="endArrow=none;html=1;rounded=0;fontSize=12;dashed=1;strokeColor=#FF9933;strokeWidth=3;" parent="1" edge="1">
          <mxGeometry width="50" height="50" relative="1" as="geometry">
            <mxPoint x="-210" y="1020" as="sourcePoint" />
            <mxPoint x="-210" y="170" as="targetPoint" />
          </mxGeometry>
        </mxCell>
        <mxCell id="bGXHBq7ZRL8jHebe2MsM-132" value="async" style="rounded=1;whiteSpace=wrap;html=1;fontSize=12;strokeColor=#d79b00;strokeWidth=1;fillColor=#ffcd28;opacity=90;gradientColor=#ffa500;" parent="1" vertex="1">
          <mxGeometry x="1" y="180" width="59" height="30" as="geometry" />
        </mxCell>
        <mxCell id="bGXHBq7ZRL8jHebe2MsM-133" value="" style="rounded=0;whiteSpace=wrap;html=1;fontSize=12;strokeColor=none;strokeWidth=1;fillColor=#FFFFFF;opacity=90;" parent="1" vertex="1">
          <mxGeometry x="1390" y="220" width="210" height="660" as="geometry" />
        </mxCell>
        <mxCell id="bGXHBq7ZRL8jHebe2MsM-134" value="左侧页签" style="text;html=1;strokeColor=none;fillColor=none;align=center;verticalAlign=middle;whiteSpace=wrap;rounded=0;fontSize=12;opacity=90;" parent="1" vertex="1">
          <mxGeometry x="1454" y="231" width="76" height="31" as="geometry" />
        </mxCell>
        <mxCell id="bGXHBq7ZRL8jHebe2MsM-135" value="右侧页签部分" style="text;html=1;strokeColor=none;fillColor=none;align=center;verticalAlign=middle;whiteSpace=wrap;rounded=0;fontSize=12;opacity=90;" parent="1" vertex="1">
          <mxGeometry x="1693" y="226" width="80" height="30" as="geometry" />
        </mxCell>
        <mxCell id="bGXHBq7ZRL8jHebe2MsM-136" value="" style="endArrow=none;html=1;rounded=0;fontSize=12;dashed=1;strokeColor=#FF9933;strokeWidth=3;" parent="1" edge="1">
          <mxGeometry width="50" height="50" relative="1" as="geometry">
            <mxPoint x="533" y="1030" as="sourcePoint" />
            <mxPoint x="533" y="180" as="targetPoint" />
          </mxGeometry>
        </mxCell>
        <mxCell id="bGXHBq7ZRL8jHebe2MsM-137" value="" style="endArrow=none;html=1;rounded=0;fontSize=12;dashed=1;strokeColor=#FF9933;strokeWidth=3;" parent="1" edge="1">
          <mxGeometry width="50" height="50" relative="1" as="geometry">
            <mxPoint x="-40" y="1020" as="sourcePoint" />
            <mxPoint x="-40" y="170" as="targetPoint" />
          </mxGeometry>
        </mxCell>
        <mxCell id="bGXHBq7ZRL8jHebe2MsM-138" value="" style="rounded=0;whiteSpace=wrap;html=1;fontSize=12;strokeColor=#999999;strokeWidth=1;fillColor=#FFFFFF;opacity=90;" parent="1" vertex="1">
          <mxGeometry x="1400" y="290" width="190" height="100" as="geometry" />
        </mxCell>
        <mxCell id="bGXHBq7ZRL8jHebe2MsM-150" style="edgeStyle=none;rounded=0;orthogonalLoop=1;jettySize=auto;html=1;exitX=1;exitY=0.5;exitDx=0;exitDy=0;entryX=0;entryY=0.5;entryDx=0;entryDy=0;fontSize=12;strokeColor=#999999;strokeWidth=1;" parent="1" source="bGXHBq7ZRL8jHebe2MsM-139" target="bGXHBq7ZRL8jHebe2MsM-146" edge="1">
          <mxGeometry relative="1" as="geometry" />
        </mxCell>
        <mxCell id="bGXHBq7ZRL8jHebe2MsM-151" style="edgeStyle=none;rounded=0;orthogonalLoop=1;jettySize=auto;html=1;exitX=1;exitY=0.5;exitDx=0;exitDy=0;fontSize=12;strokeColor=#999999;strokeWidth=1;" parent="1" source="bGXHBq7ZRL8jHebe2MsM-139" edge="1">
          <mxGeometry relative="1" as="geometry">
            <mxPoint x="1460" y="360" as="targetPoint" />
          </mxGeometry>
        </mxCell>
        <mxCell id="bGXHBq7ZRL8jHebe2MsM-139" value="筛选" style="rounded=0;whiteSpace=wrap;html=1;fontSize=12;strokeColor=#999999;strokeWidth=1;fillColor=#FFFFFF;opacity=90;" parent="1" vertex="1">
          <mxGeometry x="1408" y="300" width="30" height="80" as="geometry" />
        </mxCell>
        <mxCell id="bGXHBq7ZRL8jHebe2MsM-140" value="&lt;span style=&quot;white-space: pre;&quot;&gt; &lt;/span&gt;bondInnerCodeBasic &lt;br&gt;有值则请求基本&lt;br&gt;信息以及债券公告" style="rounded=0;whiteSpace=wrap;html=1;fontSize=12;strokeColor=#999999;strokeWidth=1;fillColor=#FFFFFF;opacity=90;" parent="1" vertex="1">
          <mxGeometry x="1400" y="445" width="190" height="100" as="geometry" />
        </mxCell>
        <mxCell id="bGXHBq7ZRL8jHebe2MsM-141" value="基本信息" style="rounded=0;whiteSpace=wrap;html=1;fontSize=12;strokeColor=#999999;strokeWidth=1;fillColor=#FFFFFF;opacity=90;" parent="1" vertex="1">
          <mxGeometry x="1408" y="458" width="30" height="78" as="geometry" />
        </mxCell>
        <mxCell id="bGXHBq7ZRL8jHebe2MsM-142" value="" style="rounded=0;whiteSpace=wrap;html=1;fontSize=12;strokeColor=#999999;strokeWidth=1;fillColor=#FFFFFF;opacity=90;" parent="1" vertex="1">
          <mxGeometry x="1400" y="605" width="190" height="105" as="geometry" />
        </mxCell>
        <mxCell id="bGXHBq7ZRL8jHebe2MsM-143" value="录入识别" style="rounded=0;whiteSpace=wrap;html=1;fontSize=12;strokeColor=#999999;strokeWidth=1;fillColor=#FFFFFF;opacity=90;" parent="1" vertex="1">
          <mxGeometry x="1407" y="614" width="30" height="85" as="geometry" />
        </mxCell>
        <mxCell id="bGXHBq7ZRL8jHebe2MsM-145" style="edgeStyle=none;rounded=0;orthogonalLoop=1;jettySize=auto;html=1;exitX=1;exitY=0.75;exitDx=0;exitDy=0;fontSize=12;strokeColor=#999999;strokeWidth=1;" parent="1" source="bGXHBq7ZRL8jHebe2MsM-126" target="bGXHBq7ZRL8jHebe2MsM-126" edge="1">
          <mxGeometry relative="1" as="geometry" />
        </mxCell>
        <mxCell id="bGXHBq7ZRL8jHebe2MsM-146" value="请求筛选模板?" style="rounded=1;whiteSpace=wrap;html=1;fontSize=12;strokeColor=#999999;strokeWidth=1;fillColor=#FFFFFF;opacity=90;" parent="1" vertex="1">
          <mxGeometry x="1461" y="301" width="116" height="29" as="geometry" />
        </mxCell>
        <mxCell id="bGXHBq7ZRL8jHebe2MsM-147" value="请求 筛选项枚举?" style="rounded=1;whiteSpace=wrap;html=1;fontSize=12;strokeColor=#999999;strokeWidth=1;fillColor=#FFFFFF;opacity=90;" parent="1" vertex="1">
          <mxGeometry x="1461" y="347" width="116" height="30" as="geometry" />
        </mxCell>
        <mxCell id="bGXHBq7ZRL8jHebe2MsM-152" value="待录入单据" style="rounded=0;whiteSpace=wrap;html=1;fontSize=12;strokeColor=#999999;strokeWidth=1;fillColor=#FFFFFF;opacity=90;" parent="1" vertex="1">
          <mxGeometry x="1457" y="620" width="123" height="30" as="geometry" />
        </mxCell>
        <mxCell id="bGXHBq7ZRL8jHebe2MsM-153" value="我的任务&lt;br&gt;（有权限才显示）" style="rounded=0;whiteSpace=wrap;html=1;fontSize=12;strokeColor=#999999;strokeWidth=1;fillColor=#FFFFFF;opacity=90;" parent="1" vertex="1">
          <mxGeometry x="1457" y="664" width="123" height="36" as="geometry" />
        </mxCell>
      </root>
    </mxGraphModel>
  </diagram>
  <diagram id="2x2kH3iN9NSTp5_7ysEB" name="第 2 页">
    <mxGraphModel dx="1050" dy="549" grid="1" gridSize="10" guides="1" tooltips="1" connect="1" arrows="1" fold="1" page="1" pageScale="1" pageWidth="827" pageHeight="1169" math="0" shadow="0">
      <root>
        <mxCell id="0" />
        <mxCell id="1" parent="0" />
      </root>
    </mxGraphModel>
  </diagram>
</mxfile>
